# xmcd
#
# Track frame offsets: 
#        150
#        24096
#        45763
#        60019
#        77789
#        106001
#        127318
#        147642
#        160148
#        188631
#        205310
#        224529
#        248878
#
# Disc length: 3571 seconds
#
# Revision: 0
# Processed by: cddbd v1.5.1PL0 Copyright (c) Steve Scherf et al.
# Submitted via: ExactAudioCopy v0.95b2
#
DISCID=ab0df10d
DTITLE=Little Jonny And The Giants - No Mercy
DYEAR=1996
DGENRE=Blues
TTITLE0=Stranger Blues
TTITLE1=Worried
TTITLE2=No Mercy
TTITLE3=Dana Lee
TTITLE4=Sportin Life
TTITLE5=You've Got To Move On
TTITLE6=To Be Alone With You
TTITLE7=Clear The Deck
TTITLE8=No Other Man
TTITLE9=Look On Yonders Wall
TTITLE10=You Have Yourself To Blame
TTITLE11=Runnin' Blues
TTITLE12=I'm Lost
EXTD=
EXTT0=
EXTT1=
EXTT2=
EXTT3=
EXTT4=
EXTT5=
EXTT6=
EXTT7=
EXTT8=
EXTT9=
EXTT10=
EXTT11=
EXTT12=
PLAYORDER=
